<?xml version="1.0" encoding="UTF-8" standalone="no"?>
<!DOCTYPE svg PUBLIC "-//W3C//DTD SVG 1.1//EN"
 "http://www.w3.org/Graphics/SVG/1.1/DTD/svg11.dtd">
<!-- Generated by graphviz version 2.46.0 (20210119.1425)
 -->
<!-- Title: dependencies Pages: 1 -->
<svg width="941pt" height="284pt"
 viewBox="0.00 0.00 941.00 284.00" xmlns="http://www.w3.org/2000/svg" xmlns:xlink="http://www.w3.org/1999/xlink">
<g id="graph0" class="graph" transform="scale(1 1) rotate(0) translate(4 280)">
<title>dependencies</title>
<polygon fill="white" stroke="transparent" points="-4,4 -4,-280 937,-280 937,4 -4,4"/>
<text text-anchor="start" x="445.51" y="-42.4" font-family="sans-serif" font-weight="bold" font-size="14.00">Legend</text>
<polygon fill="#ffffb3" stroke="transparent" points="232.5,-10 232.5,-30 252.5,-30 252.5,-10 232.5,-10"/>
<text text-anchor="start" x="256.13" y="-15.4" font-family="sans-serif" font-size="14.00"> &#160;Declarations</text>
<polygon fill="#8dd3c7" stroke="transparent" points="345.5,-10 345.5,-30 365.5,-30 365.5,-10 345.5,-10"/>
<text text-anchor="start" x="369.23" y="-15.4" font-family="sans-serif" font-size="14.00"> &#160;Module</text>
<polygon fill="#80b1d3" stroke="transparent" points="431.5,-10 431.5,-30 451.5,-30 451.5,-10 431.5,-10"/>
<text text-anchor="start" x="455.28" y="-15.4" font-family="sans-serif" font-size="14.00"> &#160;Bootstrap</text>
<polygon fill="#fdb462" stroke="transparent" points="528.5,-10 528.5,-30 548.5,-30 548.5,-10 528.5,-10"/>
<text text-anchor="start" x="552.17" y="-15.4" font-family="sans-serif" font-size="14.00"> &#160;Providers</text>
<polygon fill="#fb8072" stroke="transparent" points="624.5,-10 624.5,-30 644.5,-30 644.5,-10 624.5,-10"/>
<text text-anchor="start" x="648.23" y="-15.4" font-family="sans-serif" font-size="14.00"> &#160;Exports</text>
<g id="clust1" class="cluster">
<title>cluster_AppModule</title>
<polygon fill="none" stroke="black" stroke-dasharray="1,5" points="8,-70 8,-268 925,-268 925,-70 8,-70"/>
</g>
<g id="clust8" class="cluster">
<title>cluster_AppModule_imports</title>
<polygon fill="none" stroke="black" points="773,-78 773,-130 917,-130 917,-78 773,-78"/>
</g>
<g id="clust2" class="cluster">
<title>cluster_AppModule_declarations</title>
<polygon fill="none" stroke="black" points="16,-78 16,-130 765,-130 765,-78 16,-78"/>
</g>
<g id="clust10" class="cluster">
<title>cluster_AppModule_bootstrap</title>
<polygon fill="none" stroke="black" points="387,-208 387,-260 511,-260 511,-208 387,-208"/>
</g>
<!-- AdministrationComponent -->
<g id="node1" class="node">
<title>AdministrationComponent</title>
<polygon fill="#ffffb3" stroke="black" points="757.1,-122 590.9,-122 590.9,-86 757.1,-86 757.1,-122"/>
<text text-anchor="middle" x="674" y="-99.8" font-family="Times,serif" font-size="14.00">AdministrationComponent</text>
</g>
<!-- AppModule -->
<g id="node6" class="node">
<title>AppModule</title>
<polygon fill="#8dd3c7" stroke="black" points="490.66,-187 487.66,-191 466.66,-191 463.66,-187 407.34,-187 407.34,-151 490.66,-151 490.66,-187"/>
<text text-anchor="middle" x="449" y="-164.8" font-family="Times,serif" font-size="14.00">AppModule</text>
</g>
<!-- AdministrationComponent&#45;&gt;AppModule -->
<g id="edge1" class="edge">
<title>AdministrationComponent&#45;&gt;AppModule</title>
<path fill="none" stroke="black" d="M674,-122.02C674,-139.37 674,-163 674,-163 674,-163 500.79,-163 500.79,-163"/>
<polygon fill="black" stroke="black" points="500.79,-159.5 490.79,-163 500.79,-166.5 500.79,-159.5"/>
</g>
<!-- AppComponent -->
<g id="node2" class="node">
<title>AppComponent</title>
<polygon fill="#ffffb3" stroke="black" points="572.94,-122 467.06,-122 467.06,-86 572.94,-86 572.94,-122"/>
<text text-anchor="middle" x="520" y="-99.8" font-family="Times,serif" font-size="14.00">AppComponent</text>
</g>
<!-- AppComponent&#45;&gt;AppModule -->
<g id="edge2" class="edge">
<title>AppComponent&#45;&gt;AppModule</title>
<path fill="none" stroke="black" d="M479.05,-122.11C479.05,-122.11 479.05,-140.99 479.05,-140.99"/>
<polygon fill="black" stroke="black" points="475.55,-140.99 479.05,-150.99 482.55,-140.99 475.55,-140.99"/>
</g>
<!-- CategoriesComponent -->
<g id="node3" class="node">
<title>CategoriesComponent</title>
<polygon fill="#ffffb3" stroke="black" points="449.7,-122 308.3,-122 308.3,-86 449.7,-86 449.7,-122"/>
<text text-anchor="middle" x="379" y="-99.8" font-family="Times,serif" font-size="14.00">CategoriesComponent</text>
</g>
<!-- CategoriesComponent&#45;&gt;AppModule -->
<g id="edge3" class="edge">
<title>CategoriesComponent&#45;&gt;AppModule</title>
<path fill="none" stroke="black" d="M428.39,-122.11C428.39,-122.11 428.39,-140.99 428.39,-140.99"/>
<polygon fill="black" stroke="black" points="424.89,-140.99 428.39,-150.99 431.89,-140.99 424.89,-140.99"/>
</g>
<!-- FavoritesComponent -->
<g id="node4" class="node">
<title>FavoritesComponent</title>
<polygon fill="#ffffb3" stroke="black" points="290.93,-122 157.07,-122 157.07,-86 290.93,-86 290.93,-122"/>
<text text-anchor="middle" x="224" y="-99.8" font-family="Times,serif" font-size="14.00">FavoritesComponent</text>
</g>
<!-- FavoritesComponent&#45;&gt;AppModule -->
<g id="edge4" class="edge">
<title>FavoritesComponent&#45;&gt;AppModule</title>
<path fill="none" stroke="black" d="M224,-122.02C224,-139.37 224,-163 224,-163 224,-163 397.21,-163 397.21,-163"/>
<polygon fill="black" stroke="black" points="397.21,-166.5 407.21,-163 397.21,-159.5 397.21,-166.5"/>
</g>
<!-- HomeComponent -->
<g id="node5" class="node">
<title>HomeComponent</title>
<polygon fill="#ffffb3" stroke="black" points="139.55,-122 24.45,-122 24.45,-86 139.55,-86 139.55,-122"/>
<text text-anchor="middle" x="82" y="-99.8" font-family="Times,serif" font-size="14.00">HomeComponent</text>
</g>
<!-- HomeComponent&#45;&gt;AppModule -->
<g id="edge5" class="edge">
<title>HomeComponent&#45;&gt;AppModule</title>
<path fill="none" stroke="black" d="M82,-122.28C82,-143.32 82,-175 82,-175 82,-175 397.26,-175 397.26,-175"/>
<polygon fill="black" stroke="black" points="397.26,-178.5 407.26,-175 397.26,-171.5 397.26,-178.5"/>
</g>
<!-- AppComponent  -->
<g id="node8" class="node">
<title>AppComponent </title>
<polygon fill="#80b1d3" stroke="black" points="503.44,-252 394.56,-252 394.56,-216 503.44,-216 503.44,-252"/>
<text text-anchor="middle" x="449" y="-229.8" font-family="Times,serif" font-size="14.00">AppComponent </text>
</g>
<!-- AppModule&#45;&gt;AppComponent  -->
<g id="edge7" class="edge">
<title>AppModule&#45;&gt;AppComponent </title>
<path fill="none" stroke="black" stroke-dasharray="1,5" d="M449,-187.11C449,-187.11 449,-205.99 449,-205.99"/>
<polygon fill="black" stroke="black" points="445.5,-205.99 449,-215.99 452.5,-205.99 445.5,-205.99"/>
</g>
<!-- AppRoutingModule -->
<g id="node7" class="node">
<title>AppRoutingModule</title>
<polygon fill="#8dd3c7" stroke="black" points="909.27,-122 906.27,-126 885.27,-126 882.27,-122 780.73,-122 780.73,-86 909.27,-86 909.27,-122"/>
<text text-anchor="middle" x="845" y="-99.8" font-family="Times,serif" font-size="14.00">AppRoutingModule</text>
</g>
<!-- AppRoutingModule&#45;&gt;AppModule -->
<g id="edge6" class="edge">
<title>AppRoutingModule&#45;&gt;AppModule</title>
<path fill="none" stroke="black" d="M845,-122.28C845,-143.32 845,-175 845,-175 845,-175 501,-175 501,-175"/>
<polygon fill="black" stroke="black" points="501,-171.5 491,-175 501,-178.5 501,-171.5"/>
</g>
</g>
</svg>
